<svg width="19" height="20" viewBox="0 0 19 20" fill="none" xmlns="http://www.w3.org/2000/svg">
<g clip-path="url(#clip0_2002_179)">
<path d="M4.10372 17.5006H0.302827V5.81699H4.10372V17.5006ZM2.20123 4.22324C0.985826 4.22324 0 3.2623 0 2.10215C8.69933e-09 1.54488 0.231914 1.01044 0.644725 0.616396C1.05753 0.222349 1.61743 0.000976562 2.20123 0.000976562C2.78503 0.000976562 3.34492 0.222349 3.75773 0.616396C4.17054 1.01044 4.40246 1.54488 4.40246 2.10215C4.40246 3.2623 3.41622 4.22324 2.20123 4.22324ZM18.3292 17.5006H14.5365V11.8131C14.5365 10.4576 14.5079 8.71934 12.5604 8.71934C10.5842 8.71934 10.2814 10.192 10.2814 11.7154V17.5006H6.4846V5.81699H10.13V7.41074H10.1832C10.6906 6.49277 11.9302 5.52402 13.7795 5.52402C17.6262 5.52402 18.3333 7.94199 18.3333 11.0826V17.5006H18.3292Z" fill="#26A9B3"/>
</g>
<defs>
<clipPath id="clip0_2002_179">
<rect width="18.3333" height="20" fill="white"/>
</clipPath>
</defs>
</svg>
